<?xml version="1.0" standalone="no"?>
<!DOCTYPE svg PUBLIC "-//W3C//DTD SVG 20010904//EN"
 "http://www.w3.org/TR/2001/REC-SVG-20010904/DTD/svg10.dtd">
<svg version="1.0" xmlns="http://www.w3.org/2000/svg"
 width="1920.000000pt" height="1920.000000pt" viewBox="0 0 1920.000000 1920.000000"
 preserveAspectRatio="xMidYMid meet">
<metadata>
Created by potrace 1.14, written by Peter Selinger 2001-2017
</metadata>
<g transform="translate(0.000000,1920.000000) scale(0.100000,-0.100000)"
fill="#000000" stroke="none">
<path d="M837 17862 l-37 -38 1 -245 c0 -134 0 -255 -1 -269 -1 -14 -2 -32 -2
-40 0 -8 1 -162 1 -342 1 -305 2 -328 19 -329 9 0 35 -2 57 -4 22 -2 69 -6
105 -9 59 -4 122 -10 220 -20 19 -2 56 -7 83 -10 61 -8 119 -14 187 -22 30 -3
71 -9 90 -14 19 -5 58 -11 85 -14 28 -3 62 -8 78 -11 15 -3 39 -7 55 -10 15
-3 43 -8 62 -11 19 -3 82 -17 139 -30 57 -14 111 -27 120 -29 77 -18 257 -79
337 -116 71 -32 173 -101 218 -145 126 -125 239 -417 270 -699 2 -17 6 -44 9
-60 4 -17 9 -59 13 -95 3 -36 9 -87 12 -115 7 -70 13 -11165 6 -11177 -4 -6
-8 -38 -10 -72 -7 -127 -35 -330 -60 -436 -9 -36 -17 -74 -20 -85 -2 -11 -18
-62 -35 -114 -52 -156 -126 -280 -211 -354 -69 -60 -131 -94 -303 -167 -22 -9
-182 -60 -205 -65 -8 -2 -55 -13 -105 -25 -93 -23 -107 -26 -165 -36 -19 -4
-44 -8 -55 -11 -11 -2 -35 -6 -54 -9 -18 -3 -43 -8 -55 -10 -11 -2 -41 -7 -66
-10 -25 -3 -54 -8 -65 -10 -11 -2 -38 -7 -60 -9 -22 -3 -74 -10 -115 -15 -41
-5 -102 -12 -135 -16 -33 -3 -76 -7 -95 -10 -34 -3 -76 -7 -239 -20 -91 -8
-99 -9 -106 -15 -5 -5 -5 -103 -5 -736 1 -105 0 -195 -1 -200 -1 -4 -1 -69 0
-144 l1 -137 39 -38 38 -39 2864 0 c2839 0 2864 1 2891 20 59 45 57 17 57 676
l0 605 -47 3 c-127 7 -291 19 -347 26 -22 2 -74 7 -115 10 -41 3 -85 8 -96 10
-12 2 -48 6 -80 10 -33 4 -70 9 -84 11 -14 2 -70 11 -125 20 -124 19 -111 17
-252 45 -29 6 -56 11 -60 11 -5 0 -39 10 -78 20 -38 11 -77 21 -85 23 -8 2
-15 4 -15 5 0 1 -8 3 -17 6 -41 10 -40 9 -173 60 -215 83 -345 196 -440 384
-26 52 -97 250 -89 250 2 0 0 8 -5 18 -6 11 -12 30 -15 43 -37 201 -51 288
-61 399 -2 30 -8 89 -11 130 -9 92 -11 9840 -3 9834 3 -2 62 -76 130 -165 68
-89 144 -187 169 -219 25 -31 56 -72 70 -90 14 -18 43 -56 65 -84 22 -28 61
-78 85 -111 25 -33 50 -65 55 -72 6 -6 21 -26 35 -44 14 -19 43 -56 65 -84 22
-28 74 -95 115 -150 41 -55 77 -102 81 -105 4 -4 93 -119 218 -285 26 -33 48
-62 52 -65 3 -3 50 -63 104 -135 55 -71 105 -137 112 -145 7 -8 55 -71 108
-140 53 -69 104 -134 113 -145 9 -11 35 -45 57 -75 21 -30 42 -57 45 -60 4 -3
42 -52 86 -110 43 -57 87 -114 96 -125 9 -11 82 -105 162 -210 81 -104 152
-197 159 -205 6 -9 41 -54 77 -100 35 -47 67 -87 70 -90 3 -3 47 -61 99 -130
52 -69 97 -127 100 -130 4 -3 26 -32 51 -65 60 -80 183 -239 190 -245 3 -3 17
-21 30 -40 14 -19 30 -42 37 -50 12 -15 213 -274 263 -340 14 -18 43 -55 65
-84 23 -28 61 -78 85 -111 25 -33 47 -62 50 -65 3 -3 28 -34 55 -70 27 -36 52
-67 55 -70 3 -3 17 -21 30 -40 13 -19 29 -40 35 -47 12 -15 21 -26 65 -83 19
-25 37 -47 40 -50 3 -3 23 -30 45 -60 22 -30 44 -60 50 -66 5 -6 21 -26 35
-44 29 -38 176 -230 189 -246 5 -6 50 -64 100 -130 96 -125 101 -131 141 -180
14 -17 32 -41 40 -54 8 -12 20 -28 25 -34 6 -6 71 -89 144 -185 73 -95 140
-181 147 -190 8 -9 24 -30 36 -47 21 -29 184 -240 211 -274 7 -8 55 -71 107
-140 52 -69 97 -127 100 -130 3 -3 28 -34 55 -70 27 -36 52 -67 55 -70 3 -3
17 -21 30 -40 13 -19 27 -37 30 -40 3 -3 44 -54 90 -115 90 -118 152 -197 160
-205 3 -3 17 -21 30 -40 13 -19 51 -69 83 -110 33 -41 70 -88 82 -105 13 -16
74 -96 137 -177 62 -81 167 -217 233 -304 66 -86 134 -173 150 -194 17 -21 95
-122 175 -226 79 -104 147 -191 150 -194 3 -3 34 -43 69 -90 35 -47 68 -86 73
-88 4 -2 8 -8 8 -13 0 -5 9 -19 19 -31 17 -20 171 -219 234 -302 12 -16 37
-48 55 -70 17 -23 35 -46 40 -51 4 -6 29 -40 57 -75 27 -36 53 -69 57 -75 4
-5 23 -29 40 -51 18 -23 103 -132 188 -244 85 -111 191 -248 235 -304 44 -57
91 -118 105 -136 31 -41 133 -174 165 -215 13 -16 99 -127 190 -245 91 -118
178 -230 193 -249 15 -18 31 -41 36 -50 5 -9 14 -21 20 -27 6 -6 22 -26 36
-44 69 -90 213 -277 228 -295 9 -11 56 -72 104 -135 48 -63 107 -140 130 -170
135 -173 195 -251 213 -276 11 -15 45 -59 76 -98 30 -39 78 -100 105 -136 28
-36 172 -222 320 -415 417 -540 421 -545 482 -627 l57 -77 935 0 935 0 39 36
39 36 2 7041 c2 3873 5 7061 8 7086 3 25 8 71 11 103 7 71 15 143 21 177 3 14
7 39 10 55 3 17 7 41 10 55 3 14 8 41 11 60 14 85 62 231 109 335 57 125 169
263 249 307 115 64 192 98 306 138 40 14 160 48 200 56 14 3 50 11 80 19 54
13 163 35 207 40 12 2 34 6 50 9 36 8 86 15 142 21 24 3 51 7 60 9 15 4 92 13
180 21 20 2 56 6 81 9 25 3 74 8 110 10 36 3 94 8 130 11 36 3 98 7 138 9 41
2 77 7 80 11 4 4 7 279 7 612 l1 606 -40 38 -39 39 -2878 0 -2878 0 -38 -39
-38 -40 0 -605 c0 -332 3 -608 7 -611 4 -4 31 -9 61 -10 124 -7 244 -16 277
-20 19 -3 62 -7 95 -10 33 -3 78 -7 100 -10 22 -2 63 -7 90 -10 28 -2 59 -6
70 -9 11 -2 47 -7 80 -11 33 -4 69 -9 80 -10 24 -4 180 -32 215 -39 14 -3 50
-11 80 -17 300 -61 569 -173 700 -292 110 -101 230 -347 266 -544 3 -15 7 -30
9 -34 3 -4 7 -24 10 -45 4 -22 8 -46 10 -54 2 -8 7 -37 10 -65 3 -27 8 -59 10
-71 2 -11 7 -54 10 -95 4 -41 9 -87 12 -104 9 -50 11 -8245 2 -8245 -5 0 -13
8 -18 18 -5 9 -31 44 -58 78 -26 33 -59 76 -73 94 -14 18 -74 97 -135 174 -60
78 -130 168 -155 201 -25 33 -47 62 -50 65 -5 5 -60 75 -160 205 -29 39 -56
72 -60 75 -3 3 -17 21 -30 40 -14 19 -32 44 -42 55 -9 11 -89 115 -179 230
-89 116 -227 293 -305 395 -79 102 -196 253 -260 335 -63 83 -123 159 -132
170 -9 11 -37 47 -62 80 -25 33 -49 65 -55 71 -5 7 -35 44 -65 84 -52 68 -136
177 -163 210 -7 8 -81 105 -166 214 -85 110 -160 206 -167 215 -7 9 -27 34
-43 56 -16 22 -83 110 -150 195 -66 85 -160 206 -208 268 -49 63 -112 144
-141 180 -29 37 -56 72 -60 77 -44 60 -68 92 -77 102 -14 17 -23 29 -80 103
-28 35 -56 71 -62 80 -7 8 -65 83 -128 165 -64 83 -124 159 -133 170 -10 11
-28 36 -42 55 -14 19 -32 44 -42 55 -14 17 -345 443 -411 529 -52 68 -235 305
-272 352 -22 27 -49 63 -60 78 -11 16 -25 33 -30 40 -6 6 -33 40 -60 76 -28
36 -52 67 -55 70 -3 3 -17 21 -30 40 -13 19 -27 37 -30 40 -3 3 -53 66 -110
140 -58 74 -109 140 -115 147 -5 6 -48 61 -95 123 -47 62 -131 171 -188 244
-56 72 -118 151 -137 176 -19 25 -87 113 -152 197 -65 83 -185 238 -268 345
-82 106 -152 195 -155 198 -3 3 -17 21 -30 40 -13 19 -35 49 -49 66 -14 18
-35 44 -46 58 -11 14 -27 34 -35 45 -8 10 -26 33 -40 51 -27 35 -212 275 -233
300 -7 9 -34 45 -62 80 -27 36 -53 70 -58 75 -7 9 -92 119 -120 155 -7 9 -32
42 -57 75 -25 33 -52 69 -62 80 -9 11 -46 58 -82 105 -36 47 -69 90 -73 95 -5
6 -31 39 -58 75 -28 36 -52 67 -55 70 -7 7 -51 65 -131 170 -35 47 -66 87 -70
90 -3 3 -83 106 -179 230 -363 470 -374 484 -380 490 -3 3 -25 32 -50 65 -25
33 -51 66 -57 75 -19 23 -211 270 -241 310 -31 41 -302 390 -315 405 -4 6 -60
78 -123 160 -64 83 -145 187 -181 233 l-64 82 -2738 0 -2737 0 -37 -38z"/>
</g>
</svg>
